<svg
  width="109"
  height="30"
  viewBox="0 0 109 42"
  fill="none"
  xmlns="http://www.w3.org/2000/svg"
>
  <path
    d="M37.1979 27.4029C35.6979 27.4029 34.17 26.5932 33.2133 25.0061V33.5804H30.2085V12.4132H32.9254L33.0291 14.7415C33.9612 12.9525 35.6162 12.0075 37.1952 12.0075C40.2231 12.0075 42.4536 15.3171 42.4536 19.7051C42.4536 24.093 40.2261 27.4046 37.1979 27.4029ZM36.2676 14.9134C34.5074 14.9134 33.0849 16.7026 33.0849 19.7073C33.0849 22.712 34.5074 24.5049 36.2676 24.5049C38.0278 24.5049 39.4503 22.7159 39.4503 19.7112C39.4503 16.7365 38.0559 14.9495 36.3202 14.9139L36.2676 14.9134ZM53.7783 27.0011L53.6746 24.6726C52.7428 26.4618 51.0863 27.4068 49.5073 27.4052C46.4793 27.4052 44.2489 24.0972 44.2489 19.7092C44.2489 15.321 46.4749 12.0114 49.5073 12.0133C51.0863 12.0133 52.7428 12.9658 53.6746 14.7476L53.7783 12.4193H56.5012V27.0008L53.7783 27.0011ZM50.4408 14.9153C48.6806 14.9153 47.2579 16.7045 47.2564 19.7092C47.2549 22.714 48.6791 24.5051 50.4391 24.5051C52.1993 24.5051 53.6235 22.7159 53.6235 19.7112C53.6235 16.7065 52.2008 14.9153 50.4408 14.9153ZM66.9992 27.0031V18.9359C66.9992 16.1005 66.2498 15.1552 64.8782 15.1552C63.454 15.1552 61.9013 16.8417 61.9013 18.867V27.0031H58.8981V12.4193H61.6427L61.7728 15.1211C62.5236 13.2633 64.2048 12.0153 65.9139 12.0153C68.8893 12.0153 70.0038 14.7173 70.0038 18.3277V27.0047L66.9992 27.0031ZM81.0072 27.0067L80.9035 24.6765C79.9715 26.4657 78.3152 27.4107 76.7377 27.4107C73.7095 27.4107 71.4791 24.1011 71.4791 19.7129C71.4791 15.3249 73.7053 12.0172 76.7375 12.0172C78.2377 12.0172 79.7641 12.8289 80.7224 14.4141V6.75257H83.7256V27.0067H81.0072ZM77.6695 14.9211C75.9168 14.9211 74.4868 16.7101 74.4868 19.7129C74.4868 22.7159 75.9093 24.5049 77.6695 24.5049C79.4297 24.5049 80.8522 22.7179 80.8522 19.7129C80.8522 16.7081 79.434 14.9211 77.6695 14.9211ZM95.0052 27.0083L94.9013 24.6801C93.9695 26.469 92.313 27.4124 90.734 27.4124C87.706 27.4124 85.4756 24.1047 85.4756 19.7145C85.4756 15.3246 87.7016 12.0189 90.734 12.0189C92.313 12.0189 93.9695 12.9714 94.9013 14.7548L95.005 12.4249H97.7219V27.0064L95.0052 27.0083ZM91.6673 14.9228C89.9146 14.9228 88.4846 16.7117 88.4831 19.7165C88.4816 22.7212 89.9073 24.5046 91.6658 24.5046C93.4245 24.5046 94.8502 22.7156 94.8502 19.7109C94.8502 16.7362 93.4558 14.9583 91.7201 14.9234L91.6673 14.9228ZM104.373 27.4829C102.793 27.4658 101.247 26.8938 99.8955 25.827L100.388 23.1272L100.54 23.2447C101.444 23.9328 102.755 24.7487 104.321 24.7487C105.512 24.7487 106.34 24.276 106.34 23.0603C106.34 22.0144 105.486 21.6429 103.959 21.1702C101.216 20.3927 100.233 18.5029 100.233 16.4432C100.233 14.1472 101.604 11.9883 104.633 11.9883C106.47 11.9883 108.075 13.0344 108.43 13.3049L107.938 15.8714C106.96 15.1037 105.845 14.6845 104.704 14.6559C103.489 14.6559 102.893 15.1949 102.893 16.0733C102.893 17.0508 103.67 17.491 104.859 17.8625C107.81 18.6726 109 20.4618 109 22.4204C109.006 25.5585 107.246 27.4829 104.372 27.4829M5.65139 2.48264H9.17026V12.0133H5.65139V2.48264ZM5.65139 22.0605H9.17026V31.5912H5.65139V22.0605ZM0 10.3194H3.51887V42H0V10.3194ZM11.1874 29.9239H14.7065V39.4546H11.1874V29.9239ZM11.1874 10.331H14.7065V19.8617H11.1874V10.331ZM16.7221 0H20.2408V31.6806H16.7221V0Z"
    fill="#130754"
  />
</svg>
