<svg width="50" height="50" viewBox="0 0 50 50" fill="none" xmlns="http://www.w3.org/2000/svg">
<g clip-path="url(#clip0_924_362)">
<path d="M24.7873 0.0136719C12.1248 0.0136719 12.9154 5.52642 12.9154 5.52642L12.9295 11.2378H25.0131V12.9525H8.13008C8.13008 12.9525 0.0273438 12.0299 0.0273438 24.8564C0.0273438 37.6833 7.09961 37.2284 7.09961 37.2284H11.3203V31.2762C11.3203 31.2762 11.0928 24.1762 18.2797 24.1762H30.2645C30.2645 24.1762 36.9979 24.2854 36.9979 17.6431V6.66034C36.9979 6.66034 38.0205 0.0136719 24.7873 0.0136719ZM18.1244 3.85446C18.41 3.8542 18.6928 3.91047 18.9566 4.02005C19.2205 4.12963 19.4602 4.29038 19.6621 4.49308C19.864 4.69578 20.0241 4.93646 20.1333 5.20135C20.2424 5.46625 20.2985 5.75015 20.2982 6.03681C20.2985 6.32347 20.2424 6.60737 20.1333 6.87226C20.0241 7.13716 19.864 7.37784 19.6621 7.58054C19.4602 7.78324 19.2205 7.94398 18.9566 8.05357C18.6928 8.16315 18.41 8.21942 18.1244 8.21916C17.8389 8.21942 17.5561 8.16315 17.2922 8.05357C17.0284 7.94398 16.7886 7.78324 16.5867 7.58054C16.3848 7.37784 16.2247 7.13716 16.1155 6.87226C16.0064 6.60737 15.9503 6.32347 15.9506 6.03681C15.9503 5.75015 16.0064 5.46625 16.1155 5.20135C16.2247 4.93646 16.3848 4.69578 16.5867 4.49308C16.7886 4.29038 17.0284 4.12963 17.2922 4.02005C17.5561 3.91047 17.8389 3.8542 18.1244 3.85446Z" fill="url(#paint0_linear_924_362)"/>
<path d="M25.147 49.829C37.8095 49.829 37.0189 44.3163 37.0189 44.3163L37.0048 38.6051H24.9211V36.8904H41.8041C41.8041 36.8904 49.9068 37.8129 49.9068 24.9861C49.9068 12.1594 42.8345 12.6143 42.8345 12.6143H38.6138V18.5663C38.6138 18.5663 38.8414 25.6663 31.6544 25.6663H19.6697C19.6697 25.6663 12.9363 25.557 12.9363 32.1996V43.1825C12.9363 43.1825 11.9138 49.829 25.1468 49.829H25.147ZM31.8099 45.9886C31.5244 45.9889 31.2416 45.9326 30.9777 45.823C30.7139 45.7134 30.4741 45.5527 30.2722 45.35C30.0703 45.1473 29.9102 44.9066 29.801 44.6417C29.6919 44.3768 29.6358 44.0929 29.6361 43.8063C29.6358 43.5196 29.6918 43.2357 29.801 42.9707C29.9101 42.7058 30.0702 42.4651 30.2721 42.2624C30.4741 42.0597 30.7138 41.8989 30.9777 41.7893C31.2416 41.6797 31.5244 41.6235 31.8099 41.6237C32.0955 41.6235 32.3783 41.6797 32.6421 41.7893C32.906 41.8989 33.1457 42.0596 33.3476 42.2623C33.5495 42.465 33.7096 42.7057 33.8188 42.9706C33.928 43.2355 33.984 43.5194 33.9837 43.8061C33.984 44.0927 33.928 44.3766 33.8188 44.6415C33.7096 44.9064 33.5495 45.1471 33.3476 45.3498C33.1457 45.5525 32.906 45.7132 32.6421 45.8228C32.3783 45.9324 32.0955 45.9889 31.8099 45.9886Z" fill="url(#paint1_linear_924_362)"/>
</g>
<defs>
<linearGradient id="paint0_linear_924_362" x1="479.366" y1="448.065" x2="2960.81" y2="2895.16" gradientUnits="userSpaceOnUse">
<stop stop-color="#387EB8"/>
<stop offset="1" stop-color="#366994"/>
</linearGradient>
<linearGradient id="paint1_linear_924_362" x1="720.44" y1="778.495" x2="3384.74" y2="3287.31" gradientUnits="userSpaceOnUse">
<stop stop-color="#FFE052"/>
<stop offset="1" stop-color="#FFC331"/>
</linearGradient>
<clipPath id="clip0_924_362">
<rect width="50" height="50" fill="white"/>
</clipPath>
</defs>
</svg>
