<svg
  width="60"
  height="50"
  viewBox="0 0 75 70"
  fill="none"
  xmlns="http://www.w3.org/2000/svg"
>
  <path
    d="M57.5273 48.1961C66.6855 39.6539 68.2089 27.218 60.9257 20.4258C53.6425 13.6336 40.3183 15.0555 31.1601 23.5977C22.0019 32.1399 24.6503 48.4696 27.7617 51.368C30.2753 53.7141 48.3691 56.7383 57.5273 48.1961Z"
    fill="#F89939"
  />
  <path
    d="M19.9453 35.8533C14.6309 30.8987 6.89648 30.0729 2.67187 34.0104C-1.55274 37.9533 -0.667977 45.1666 4.64648 50.1213C9.96093 55.0815 20.1152 53.6432 21.9199 51.9643C23.3789 50.6026 25.2656 40.808 19.9453 35.8533Z"
    fill="#3499CD"
  />
  <path
    d="M72.5508 46.8566C72.2109 46.8566 72.041 46.6652 72.041 46.277C72.041 45.9871 72.2461 45.3527 72.6504 44.3848C73.2422 42.9684 73.541 41.9512 73.541 41.3332C73.541 40.9613 73.4238 40.6496 73.1895 40.4035C72.9551 40.1574 72.6621 40.0316 72.3106 40.0316C71.7949 40.0316 71.2031 40.2559 70.5352 40.7098C69.8672 41.1637 68.9707 41.9785 67.8398 43.1598C68.0039 42.3941 68.3555 41.3441 68.8828 40.0098L66.3574 40.4637C65.7832 41.623 65.3672 42.6676 65.1094 43.5973C64.9805 44.0512 64.8867 44.5215 64.8223 44.9973C64.0312 45.7137 63.5156 46.1457 63.293 46.3043C63.0645 46.4629 62.8242 46.5395 62.5781 46.5395C62.3496 46.5395 62.168 46.4574 62.0332 46.2988C61.8984 46.1402 61.834 45.9215 61.834 45.6535C61.834 45.3637 61.8926 45.0301 62.0098 44.6527C62.127 44.2754 62.3848 43.5645 62.7891 42.5199L63.75 40.048L62.8066 40.0863C61.9512 41.6066 60.9492 42.427 59.8008 42.5418C60.1113 41.7871 60.2695 41.2074 60.2695 40.8027C60.2695 40.2887 60 40.0316 59.4609 40.0316C58.8223 40.0316 58.3242 40.3105 57.9668 40.8738C57.6035 41.4371 57.4219 41.9676 57.4219 42.4652C57.4219 42.9629 57.7207 43.3129 58.3125 43.559C57.9258 44.0895 57.4922 44.5871 57.0234 45.0574C56.4668 45.5715 56.0332 45.9652 55.7168 46.2223C55.3945 46.4902 55.0957 46.6215 54.8262 46.6215C54.4043 46.6215 54.1934 46.3426 54.1934 45.7902C54.1934 45.2379 54.4277 44.2863 54.8965 42.8645L55.8105 40.0316H55.2305L53.1152 41.1254C52.7695 40.3871 52.166 40.0152 51.3047 40.0152C50.6191 40.0152 49.834 40.2887 48.9434 40.8301C48.0527 41.3715 47.3203 42.077 46.752 42.9574C46.3125 43.6355 46.043 44.3465 45.9434 45.0793C45.1465 45.823 44.5488 46.3043 44.1504 46.5285C43.7344 46.7582 43.3008 46.873 42.8438 46.873C41.6777 46.873 40.957 46.2441 40.6816 44.9863C43.7227 44.1551 45.2402 43.0723 45.2402 41.7379C45.2402 41.2348 45.0469 40.8301 44.6602 40.5184C44.2734 40.2066 43.7578 40.0535 43.1191 40.0535C41.8828 40.0535 40.7578 40.6059 39.7441 41.7105C38.8242 42.7113 38.3262 43.8215 38.2383 45.041C37.4004 45.8121 36.7676 46.3207 36.3574 46.5668C35.9355 46.8184 35.5371 46.9441 35.168 46.9441C34.7988 46.9441 34.5059 46.7801 34.2891 46.452C34.0664 46.1238 33.9551 45.6809 33.9551 45.1176C33.9551 44.866 33.9844 44.4066 34.0371 43.734C35.4199 42.334 36.4336 41.0215 37.084 39.791C37.7344 38.5605 38.0566 37.2863 38.0566 35.9738C38.0566 35.509 37.9922 35.1426 37.8633 34.8691C37.7344 34.5957 37.5703 34.459 37.3711 34.459C37.3301 34.459 37.2656 34.4699 37.1836 34.4973L34.5527 35.4051C33.6563 37.002 32.8887 38.7465 32.2617 40.6441C31.6348 42.5363 31.3184 44.1605 31.3184 45.5113C31.3184 46.4137 31.541 47.1301 31.998 47.666C32.4492 48.202 33.0469 48.4699 33.7852 48.4699C34.4297 48.4699 35.1035 48.2785 35.8125 47.8957C36.5215 47.5129 37.3418 46.9168 38.2852 46.1129C39.2285 45.309 38.2852 46.102 38.2852 46.102C38.3965 46.709 38.666 47.2176 39.0879 47.6332C39.668 48.191 40.4238 48.4754 41.3613 48.4754C42.2051 48.4754 42.9727 48.284 43.6699 47.9012C44.3437 47.5348 45.0996 46.9605 45.9434 46.2004C46.0137 46.7691 46.2129 47.2613 46.5469 47.6824C46.9746 48.2129 47.4902 48.4809 48.0938 48.4809C48.6973 48.4809 49.3184 48.2621 49.9043 47.8246C50.4902 47.3871 51.123 46.7035 51.8145 45.7848C51.75 47.584 52.2656 48.4809 53.3555 48.4809C53.7891 48.4809 54.2461 48.3332 54.7207 48.0379C55.1953 47.7426 55.9863 47.1027 57.0938 46.1238C58.0547 45.2379 58.7578 44.4066 59.209 43.6301C59.8184 43.5316 60.375 43.3621 60.8848 43.116C59.8418 44.6418 59.3203 45.8613 59.3203 46.7691C59.3203 47.2613 59.4668 47.6715 59.7539 47.9996C60.041 48.3277 60.3984 48.4973 60.8203 48.4973C61.7402 48.4973 63.0469 47.7262 64.7344 46.2004C64.7344 46.3207 64.7227 46.4355 64.7227 46.5559C64.7227 46.9824 64.7637 47.6277 64.834 48.4973L67.125 47.9941C67.125 47.4145 67.1367 46.9551 67.1543 46.6105C67.1895 46.1512 67.2598 45.648 67.3594 45.1012C67.4238 44.7785 67.582 44.4723 67.834 44.1824L68.4141 43.5535C68.625 43.3238 68.8301 43.116 69.0117 42.9355C69.2285 42.7223 69.4219 42.5418 69.5918 42.3941C69.7852 42.2355 69.9551 42.1043 70.1016 42.0168C70.2598 41.9293 70.3887 41.8801 70.4824 41.8801C70.6523 41.8801 70.7402 41.984 70.7402 42.1918C70.7402 42.3996 70.5762 42.8809 70.2539 43.641C69.6445 45.0574 69.3398 46.1129 69.3398 46.802C69.3398 47.3105 69.4805 47.7152 69.7676 48.0215C70.0488 48.3223 70.4238 48.4754 70.8867 48.4754C72.0234 48.4754 73.3945 47.6879 74.9883 46.1184V45.0082C73.8574 46.2496 73.043 46.873 72.5391 46.873L72.5508 46.8566ZM34.3125 42.323C34.7813 40.1848 35.2617 38.5277 35.748 37.341C36.2344 36.1543 36.6094 35.5582 36.8613 35.5582C36.9785 35.5582 37.0781 35.6293 37.1543 35.777C37.2305 35.9191 37.2656 36.116 37.2656 36.3512C37.2656 37.166 36.9961 38.134 36.4453 39.266C35.9004 40.3926 35.1855 41.4152 34.3125 42.323ZM41.2207 41.7871C41.6367 41.1363 42.0703 40.8137 42.5273 40.8137C43.0078 40.8137 43.2539 41.1254 43.2539 41.7434C43.2539 42.9957 42.3691 43.8488 40.5996 44.3137C40.5996 43.2746 40.8047 42.4324 41.2207 41.7871ZM51.4629 44.9863C50.8535 46.0855 50.1973 46.6324 49.5117 46.6324C49.2305 46.6324 48.9961 46.523 48.8145 46.3098C48.6328 46.0965 48.5391 45.8121 48.5391 45.4621C48.5391 44.5434 48.8496 43.5316 49.4648 42.4379C50.0801 41.3441 50.7363 40.7973 51.4277 40.7973C51.7148 40.7973 51.9492 40.8957 52.1191 41.1035C52.2891 41.3059 52.377 41.5902 52.377 41.9512C52.377 42.8809 52.0723 43.8926 51.4629 44.9918V44.9863Z"
    fill="#010101"
  />
  <path
    d="M44.2148 35.4811C44.3027 35.5959 44.3438 35.7436 44.3438 35.9186C44.3438 36.0936 44.291 36.2521 44.1855 36.3998C44.0801 36.5475 43.9277 36.6678 43.7227 36.7498C43.5234 36.8318 43.2949 36.8756 43.043 36.8756C42.6211 36.8756 42.3047 36.7936 42.082 36.6295C41.8594 36.4654 41.7188 36.2248 41.6602 35.9022L42.2051 35.8201C42.2344 36.0225 42.3223 36.1811 42.457 36.285C42.5977 36.3943 42.791 36.449 43.043 36.449C43.2949 36.449 43.4824 36.3998 43.6055 36.3068C43.7285 36.2139 43.7871 36.099 43.7871 35.9678C43.7871 35.8529 43.7344 35.76 43.623 35.6943C43.5469 35.6506 43.3594 35.5904 43.0605 35.5193C42.6562 35.4264 42.3809 35.3443 42.2227 35.2732C42.0645 35.2021 41.9473 35.1092 41.8711 34.9834C41.7949 34.8576 41.748 34.7264 41.748 34.5787C41.748 34.442 41.7832 34.3217 41.8477 34.2068C41.9121 34.092 42.0059 33.999 42.1172 33.9225C42.2051 33.8623 42.3164 33.8131 42.4629 33.7748C42.6094 33.7365 42.7676 33.7147 42.9375 33.7147C43.1895 33.7147 43.4121 33.7475 43.6055 33.8186C43.7988 33.8842 43.9395 33.9771 44.0332 34.0975C44.127 34.2123 44.1855 34.3709 44.2207 34.5678L43.6816 34.6334C43.6582 34.4803 43.5879 34.3545 43.4707 34.267C43.3535 34.1795 43.1895 34.1357 42.9727 34.1357C42.7207 34.1357 42.5391 34.174 42.4336 34.2506C42.3281 34.3271 42.2695 34.4201 42.2695 34.524C42.2695 34.5897 42.293 34.6498 42.334 34.7045C42.3809 34.7592 42.4512 34.8029 42.5449 34.8412C42.5977 34.8576 42.7617 34.9014 43.0313 34.9725C43.418 35.0709 43.6875 35.1475 43.8457 35.2076C43.998 35.2678 44.1211 35.3607 44.209 35.4756L44.2148 35.4811ZM46.834 36.2686C46.6875 36.3943 46.5117 36.4545 46.2949 36.4545C46.0254 36.4545 45.8086 36.3615 45.6445 36.1811C45.4805 36.0006 45.3926 35.6998 45.3926 35.2951C45.3926 34.8904 45.4805 34.6006 45.6504 34.4201C45.8203 34.2396 46.0488 34.1412 46.3242 34.1412C46.5059 34.1412 46.6641 34.1904 46.793 34.2943C46.9219 34.3982 47.0098 34.5514 47.0625 34.7537L47.5957 34.6771C47.5313 34.3709 47.3906 34.1357 47.168 33.9717C46.9453 33.8076 46.6582 33.7256 46.3066 33.7256C46.0254 33.7256 45.7734 33.7857 45.5332 33.9115C45.2988 34.0318 45.1172 34.2178 45.0059 34.4639C44.8887 34.71 44.8301 34.9943 44.8301 35.3225C44.8301 35.8256 44.9648 36.2139 45.2344 36.4818C45.5039 36.7498 45.8613 36.8865 46.3008 36.8865C46.6523 36.8865 46.9512 36.7881 47.1973 36.5912C47.4375 36.3943 47.5898 36.1209 47.6484 35.7764L47.1094 35.7107C47.0684 35.9678 46.9805 36.1537 46.834 36.2795V36.2686ZM48.1172 36.8045H48.668V33.7857H48.1172V36.8045ZM48.1172 33.2225H48.668V32.6318H48.1172V33.2225ZM52.0605 33.7803H51.3516L50.0508 35.0107V32.6318H49.5V36.799H50.0508V35.6014L50.4375 35.2568L51.5098 36.799H52.1895L50.8242 34.9014L52.0605 33.7803ZM52.623 33.2225H53.1738V32.6318H52.623V33.2225ZM52.623 36.8045H53.1738V33.7857H52.623V36.8045ZM55.207 36.3451C55.1074 36.3561 55.0254 36.367 54.9668 36.367C54.8848 36.367 54.8203 36.3561 54.7793 36.3287C54.7383 36.3014 54.7031 36.2686 54.6855 36.2303C54.668 36.1865 54.6562 36.0936 54.6562 35.9514V34.185H55.207V33.7857H54.6562V32.7303L54.1113 33.0365V33.7857H53.707V34.185H54.1113V35.924C54.1113 36.2303 54.1348 36.4326 54.1758 36.5256C54.2227 36.624 54.2988 36.7006 54.4043 36.7553C54.5156 36.8154 54.668 36.8428 54.8672 36.8428C54.9902 36.8428 55.125 36.8264 55.2832 36.799L55.2012 36.3451H55.207Z"
    fill="white"
  />
</svg>
